<?xml version="1.0" encoding="utf-8"?>
<!-- Generator: Adobe Illustrator 25.3.1, SVG Export Plug-In . SVG Version: 6.00 Build 0)  -->
<svg version="1.1" id="Layer_1" xmlns="http://www.w3.org/2000/svg" xmlns:xlink="http://www.w3.org/1999/xlink" x="0px" y="0px"
	 viewBox="0 0 64 64" style="enable-background:new 0 0 64 64;" width="64" height="64"  xml:space="preserve">
<style type="text/css">
	.st0{fill-rule:evenodd;clip-rule:evenodd;fill:#333333;}
	.st1{fill:#333333;}
</style>
<path id="twitter" class="st0" d="M32,60C16.54,60,4,47.46,4,32S16.54,4,32,4s28,12.54,28,28S47.46,60,32,60z M32,6
	C17.64,6,6,17.64,6,32s11.64,26,26,26s26-11.64,26-26l0,0C58,17.64,46.36,6,32,6z"/>
<g>
	<g>
		<path class="st1" d="M43.8,47.26c-0.65,0-1.87-0.34-4.53-1.15c-0.97-0.29-2.07-0.62-3.15-0.93c-1.32,0.39-2.68,0.59-4.06,0.59
			c-3.82,0-7.42-1.49-10.12-4.19c-2.7-2.7-4.19-6.3-4.19-10.12s1.49-7.42,4.19-10.12s6.3-4.19,10.12-4.19s7.42,1.49,10.12,4.19
			c2.7,2.7,4.19,6.3,4.19,10.12c0,3.48-1.25,6.81-3.54,9.42c0.16,0.46,0.5,1.46,0.84,2.48c0.95,2.9,0.92,3.2,0.9,3.36
			c-0.02,0.17-0.11,0.33-0.26,0.43C44.18,47.22,44.02,47.26,43.8,47.26z M43.61,46.62L43.61,46.62L43.61,46.62z M36.11,44.21
			c0.04,0,0.09,0.01,0.13,0.02c1.14,0.32,2.29,0.66,3.3,0.97c1.55,0.47,3.27,0.99,4.01,1.09c-0.22-0.91-0.98-3.26-1.72-5.37
			c-0.06-0.17-0.02-0.35,0.1-0.48c2.24-2.46,3.48-5.65,3.48-8.99c0-7.37-5.99-13.36-13.36-13.36c-7.36,0-13.36,5.99-13.36,13.36
			s5.99,13.36,13.36,13.36c1.33,0,2.65-0.2,3.92-0.58C36.01,44.22,36.06,44.21,36.11,44.21z"/>
		<g>
			<circle class="st1" cx="26.13" cy="31.93" r="1.71"/>
			<circle class="st1" cx="32.05" cy="31.93" r="1.71"/>
			<circle class="st1" cx="37.97" cy="31.93" r="1.71"/>
		</g>
	</g>
</g>
</svg>
